<svg xmlns="http://www.w3.org/2000/svg" viewBox="0 0 800 500"><rect width="800" height="500" fill="#f4f2ec"/><g transform="translate(70 65)"><g fill="#8a6b3f" opacity=".75"><rect x="0" y="35" width="42" height="42" rx="7"/><rect x="58" y="92" width="42" height="42" rx="7"/><rect x="116" y="14" width="42" height="42" rx="7"/><rect x="174" y="122" width="42" height="42" rx="7"/><rect x="232" y="57" width="42" height="42" rx="7"/></g><path d="M25 57C100 17 128 152 195 92s117-24 171 28 104-69 184-22" fill="none" stroke="#2f6f69" stroke-width="5"/><g fill="none" stroke="#2f6f69" stroke-width="2" opacity=".55"><circle cx="435" cy="114" r="54"/><circle cx="530" cy="114" r="54"/><circle cx="625" cy="114" r="54"/><path d="M489 114h-20M584 114h-20"/></g></g><text x="60" y="436" font-family="Arial" font-size="42" font-weight="700" fill="#202124">CalM</text><text x="174" y="435" font-family="Arial" font-size="20" fill="#6b655c">self-supervised representations for calcium imaging</text></svg>